<svg width="38" height="38" viewBox="0 0 76 76" fill="none" xmlns="http://www.w3.org/2000/svg">
<mask id="path-1-outside-1_619_1374" maskUnits="userSpaceOnUse" x="0" y="0" width="76" height="76" fill="black">
<rect fill="#fff" width="76" height="76"/>
<path fill-rule="evenodd" clip-rule="evenodd" d="M44 2L32 2V32L2 32L2 44H32V74H44L44 44L74 44V32L44 32V2Z"/>
</mask>
<path fill-rule="evenodd" clip-rule="evenodd" d="M44 2L32 2V32L2 32L2 44H32V74H44L44 44L74 44V32L44 32V2Z" fill="#fff"/>
<path d="M32 2V0H30V2L32 2ZM44 2L46 2V0L44 0V2ZM32 32L32 34L34 34V32H32ZM2 32L2 30L0 30L0 32H2ZM2 44H0L0 46H2L2 44ZM32 44H34V42H32V44ZM32 74H30V76H32V74ZM44 74V76H46V74H44ZM44 44V42H42V44H44ZM74 44V46H76V44H74ZM74 32H76V30L74 30L74 32ZM44 32H42V34L44 34L44 32ZM32 4L44 4V0L32 0V4ZM34 32V2L30 2V32H34ZM2 34L32 34L32 30L2 30L2 34ZM4 44V32H0L0 44H4ZM32 42H2L2 46H32V42ZM34 74L34 44H30V74H34ZM44 72H32V76H44V72ZM42 44L42 74H46L46 44H42ZM74 42L44 42V46L74 46V42ZM72 32V44H76V32H72ZM44 34L74 34L74 30L44 30L44 34ZM42 2V32H46V2L42 2Z" fill="#fff" mask="url(#path-1-outside-1_619_1374)"/>
</svg>
